<svg id="Layer_1" data-name="Layer 1" xmlns="http://www.w3.org/2000/svg" viewBox="0 0 15.49 15.64"><defs><style>.cls-1{fill:#ff95f1;}.cls-2{fill:none;stroke:#000;stroke-miterlimit:10;stroke-width:0.5px;}</style></defs><ellipse class="cls-1" cx="7.75" cy="7.82" rx="7.75" ry="7.82"/><path class="cls-2" d="M10.61,6.52" transform="translate(-0.25 -0.18)"/><path class="cls-2" d="M5.68,12" transform="translate(-0.25 -0.18)"/><path class="cls-2" d="M5.68,12" transform="translate(-0.25 -0.18)"/><circle cx="6.38" cy="6.95" r="0.48"/><circle cx="9.41" cy="8.3" r="0.48"/><path d="M8,14.75a2.45,2.45,0,0,1-1.09-.25,3.78,3.78,0,0,1-1.45-1.39l-.21-.34a3.18,3.18,0,0,1-1.45.4l-.28,0a2.13,2.13,0,0,1-1.6-1.07,3.26,3.26,0,0,1-.45-2,4.76,4.76,0,0,1,.73-1.89A12.36,12.36,0,0,1,5.11,5.1a18.77,18.77,0,0,1,1.7-1.19,6.79,6.79,0,0,1-.09-1.27,1.79,1.79,0,0,1,.65-1.59A1,1,0,0,1,7.94.91,2.14,2.14,0,0,1,8.48,1a1.32,1.32,0,0,1,.71.53,2.64,2.64,0,0,1,.3,1.61,6.11,6.11,0,0,1-.15,1c0,.06-.07.18-.32.18a.59.59,0,0,1-.39-.13A.27.27,0,0,1,8.6,4a4.72,4.72,0,0,0,.14-1A2.18,2.18,0,0,0,8.5,1.67a.66.66,0,0,0-.41-.3H8a.16.16,0,0,0-.1,0,.54.54,0,0,0-.21.19,2.34,2.34,0,0,0-.26,1.47,6.75,6.75,0,0,0,.1,1c0,.06-.05.16-.1.19l-.11.06A19.32,19.32,0,0,0,5.17,5.85a10.16,10.16,0,0,0-2.57,3,3.66,3.66,0,0,0-.44,1.71,2.83,2.83,0,0,0,.65,1.72,1.36,1.36,0,0,0,.56.4.6.6,0,0,0,.26.05h.26A2.79,2.79,0,0,0,5,12.24a1.81,1.81,0,0,1,.06-1.45,1.76,1.76,0,0,1,1.48-.95h.28l-.07-.54a.13.13,0,0,1,0-.12.12.12,0,0,1,.08,0h0l.72.3a.12.12,0,0,1,.08.1.11.11,0,0,1,0,.11l-.4.32a.43.43,0,0,1,.2.53,3.08,3.08,0,0,1-.75,1.1,6,6,0,0,1-.91.78,5.9,5.9,0,0,0,.4.68,4.57,4.57,0,0,0,.63.72,2.32,2.32,0,0,0,.6.4l.25.07.13,0a1.53,1.53,0,0,0,.6-.11A2.63,2.63,0,0,0,9,13.87a5.29,5.29,0,0,0,1.09-1.15,10.07,10.07,0,0,0,1.53-3.4,7.86,7.86,0,0,0,.27-1.7,3.65,3.65,0,0,0-.16-1.36.26.26,0,0,1,0-.15A.31.31,0,0,1,11.94,6a3.19,3.19,0,0,0,1.47-.69A1.1,1.1,0,0,0,13.73,4a1,1,0,0,0-.16-.27l-.11-.08a.2.2,0,0,1-.08,0s-.09.09-.15.12a3.37,3.37,0,0,0-1,.8c-.16.17-.32.36-.47.55a.29.29,0,0,1-.26.11c-.14,0-.36,0-.42-.17a.19.19,0,0,1,0-.18A6.6,6.6,0,0,1,11.83,4a2.68,2.68,0,0,1,1.32-.81l.24,0a1.19,1.19,0,0,1,.6.15,1.27,1.27,0,0,1,.52.73,1.33,1.33,0,0,1-.11,1.09,3.14,3.14,0,0,1-1.9,1.2,3.06,3.06,0,0,1,.1.51,7.91,7.91,0,0,1-.6,3.68,8.37,8.37,0,0,1-2,3.31,3.14,3.14,0,0,1-1.39.81A2.35,2.35,0,0,1,8,14.75ZM6.63,10.29l-.18.06a1.28,1.28,0,0,0-.28.15,1.4,1.4,0,0,0-.55,1.27A5.14,5.14,0,0,0,6.38,11a2.29,2.29,0,0,0,.3-.46.77.77,0,0,0,.06-.15l0-.08h0l0,0Z" transform="translate(-0.25 -0.18)"/><path d="M7.94,1a1.69,1.69,0,0,1,.5.08,1.22,1.22,0,0,1,.65.48,2.46,2.46,0,0,1,.27,1.53,4.86,4.86,0,0,1-.14.93c0,.06-.1.09-.2.09S8.7,4.08,8.72,4a4.83,4.83,0,0,0,.15-1A2.28,2.28,0,0,0,8.61,1.6a.77.77,0,0,0-.49-.35H8a.34.34,0,0,0-.16,0,.61.61,0,0,0-.25.23,2.51,2.51,0,0,0-.29,1.55,6.68,6.68,0,0,0,.11,1s0,0,0,0l-.12.08a18.89,18.89,0,0,0-2.2,1.59,10.22,10.22,0,0,0-2.6,3A3.75,3.75,0,0,0,2,10.55a2.91,2.91,0,0,0,.68,1.8,1.45,1.45,0,0,0,.61.43,1,1,0,0,0,.29.06h.15l.14,0a3.26,3.26,0,0,0,1.23-.53,1.75,1.75,0,0,1,0-1.45A1.66,1.66,0,0,1,6.54,10h0A1.22,1.22,0,0,1,7,10l0-.33-.06-.39.36.15.37.14-.31.24L7,10c.23.08.4.22.32.47a2.82,2.82,0,0,1-.72,1,6.36,6.36,0,0,1-1,.83,4.13,4.13,0,0,0,.45.79,4.54,4.54,0,0,0,.64.74,2.62,2.62,0,0,0,.64.42,1.14,1.14,0,0,0,.27.08l.07,0h.16a1.77,1.77,0,0,0,.57-.12A2.8,2.8,0,0,0,9.06,14a5.23,5.23,0,0,0,1.12-1.18,10.33,10.33,0,0,0,1.55-3.43A8.55,8.55,0,0,0,12,7.63a3.75,3.75,0,0,0-.17-1.41c0-.07.07-.09.12-.1a3.24,3.24,0,0,0,1.53-.72A1.22,1.22,0,0,0,13.85,4a1,1,0,0,0-.19-.3.59.59,0,0,0-.17-.13H13.4a1,1,0,0,0-.23.09,3.57,3.57,0,0,0-1,.82,6.57,6.57,0,0,0-.48.57s-.09.05-.16.05-.36-.07-.31-.15a7.56,7.56,0,0,1,.7-.8,2.49,2.49,0,0,1,1.25-.77.82.82,0,0,1,.22,0,1.11,1.11,0,0,1,.54.13,1.12,1.12,0,0,1,.46.66c.38,1.21-1.05,1.94-2.05,2.16a3.36,3.36,0,0,1,.14.61,8.11,8.11,0,0,1-.6,3.63,8.52,8.52,0,0,1-2,3.26,3.18,3.18,0,0,1-1.34.78,2.12,2.12,0,0,1-.57.07,2.4,2.4,0,0,1-1-.24A3.78,3.78,0,0,1,5.53,13a3.83,3.83,0,0,1-.25-.44l-.06,0A3,3,0,0,1,3.77,13H3.5A2,2,0,0,1,2,12a3,3,0,0,1-.43-2,4.61,4.61,0,0,1,.71-1.84,11.93,11.93,0,0,1,2.91-3A16.33,16.33,0,0,1,7,4a6.64,6.64,0,0,1-.11-1.33,1.73,1.73,0,0,1,.59-1.48A1,1,0,0,1,7.94,1m5.55,2.5h0M6.67,10.16H6.56l-.16.05a1.11,1.11,0,0,0-.3.17A1.54,1.54,0,0,0,5.53,12h0a5.63,5.63,0,0,0,1-.94,2.76,2.76,0,0,0,.32-.49.76.76,0,0,0,.06-.18.17.17,0,0,0,0-.07v-.05h0a.19.19,0,0,0-.09-.09H6.67M7.94.78h0A1.35,1.35,0,0,0,7.3.94a2,2,0,0,0-.71,1.69,6.05,6.05,0,0,0,.09,1.21A19,19,0,0,0,5,5a12.63,12.63,0,0,0-3,3.09A4.89,4.89,0,0,0,1.32,10a3.4,3.4,0,0,0,.46,2.12,2.31,2.31,0,0,0,1.69,1.13h.3a3.25,3.25,0,0,0,1.4-.35l.16.24a3.81,3.81,0,0,0,1.5,1.43A2.52,2.52,0,0,0,8,14.88a2.59,2.59,0,0,0,.63-.08A3.36,3.36,0,0,0,10.05,14a8.5,8.5,0,0,0,2.06-3.36,8,8,0,0,0,.61-3.74,2.79,2.79,0,0,0-.07-.4,3.18,3.18,0,0,0,1.86-1.23A1.45,1.45,0,0,0,14.63,4a1.31,1.31,0,0,0-.58-.79,1.32,1.32,0,0,0-.66-.17l-.26,0a2.7,2.7,0,0,0-1.38.84,6.27,6.27,0,0,0-.73.84.32.32,0,0,0,0,.3c.12.24.5.24.54.24a.44.44,0,0,0,.37-.15,6.11,6.11,0,0,1,.45-.55,3.46,3.46,0,0,1,.94-.77l.14-.06.05,0a1,1,0,0,1,.14.23,1,1,0,0,1-.3,1.15,2.9,2.9,0,0,1-1.4.66.41.41,0,0,0-.3.18.46.46,0,0,0,0,.26,3.35,3.35,0,0,1,.16,1.31,8.26,8.26,0,0,1-.27,1.67A10,10,0,0,1,10,12.64a5.1,5.1,0,0,1-1.07,1.13,2.37,2.37,0,0,1-.55.31,1.65,1.65,0,0,1-.48.1H7.8l-.08.25v-.25l-.25-.08a1.89,1.89,0,0,1-.57-.38A3.6,3.6,0,0,1,6.3,13,5.25,5.25,0,0,1,6,12.45a5.3,5.3,0,0,0,.84-.74,3.22,3.22,0,0,0,.78-1.14A.56.56,0,0,0,7.46,10l.28-.22a.23.23,0,0,0,.09-.23.26.26,0,0,0-.15-.2l-.36-.14L7,9.06,6.86,9a.27.27,0,0,0-.15.05.28.28,0,0,0-.1.24l.06.38H6.53a1.9,1.9,0,0,0-1.59,1,2,2,0,0,0-.1,1.46,2.59,2.59,0,0,1-1,.38l-.12,0H3.61l-.2,0a1.21,1.21,0,0,1-.5-.37,2.6,2.6,0,0,1-.62-1.64,3.51,3.51,0,0,1,.42-1.65A10.21,10.21,0,0,1,5.25,5.94,19.84,19.84,0,0,1,7.42,4.37l.12-.07a.32.32,0,0,0,.16-.21V4a5.39,5.39,0,0,1-.11-.94,2.33,2.33,0,0,1,.24-1.4A.45.45,0,0,1,8,1.5h.08a.53.53,0,0,1,.33.25A2.12,2.12,0,0,1,8.62,3a5.42,5.42,0,0,1-.14,1,.33.33,0,0,0,.06.25A.63.63,0,0,0,9,4.39a.41.41,0,0,0,.44-.27,4.91,4.91,0,0,0,.15-1A2.77,2.77,0,0,0,9.3,1.45,1.49,1.49,0,0,0,8.52.87,2.05,2.05,0,0,0,7.94.78ZM5.75,11.49a1.24,1.24,0,0,1,.49-.89l.25-.14.1,0,0,0a2.24,2.24,0,0,1-.29.44,5.88,5.88,0,0,1-.53.59Z" transform="translate(-0.25 -0.18)"/></svg>