<?xml version="1.0" standalone="no"?>
<!DOCTYPE svg PUBLIC "-//W3C//DTD SVG 20010904//EN"
 "http://www.w3.org/TR/2001/REC-SVG-20010904/DTD/svg10.dtd">
<svg version="1.0" xmlns="http://www.w3.org/2000/svg"
 width="1024.000000pt" height="1024.000000pt" viewBox="0 0 1024.000000 1024.000000"
 preserveAspectRatio="xMidYMid meet">
<metadata>
Created by potrace 1.14, written by Peter Selinger 2001-2017
</metadata>
<g transform="translate(0.000000,1024.000000) scale(0.100000,-0.100000)"
fill="#000000" stroke="none">
<path d="M4917 9835 c-42 -8 -114 -29 -160 -46 -72 -28 -92 -42 -168 -116
-150 -146 -257 -317 -323 -513 -59 -177 -68 -250 -67 -555 1 -287 12 -454 40
-642 l18 -116 -66 -42 c-274 -175 -377 -243 -521 -343 -195 -137 -673 -494
-850 -636 -598 -481 -1206 -1139 -1604 -1735 -253 -379 -441 -922 -477 -1382
-29 -369 54 -780 226 -1127 149 -300 315 -498 550 -656 155 -105 365 -193 547
-230 156 -32 480 -16 711 34 115 25 309 90 413 139 l84 40 39 -57 c21 -31 66
-102 100 -156 241 -384 593 -702 1003 -905 459 -229 913 -238 1403 -27 270
116 481 260 700 480 524 525 986 1258 1236 1961 23 66 73 199 110 295 209 546
322 1050 360 1615 17 252 7 670 -20 831 -11 67 -23 128 -27 137 -4 12 4 18 38
27 369 93 730 305 998 586 140 146 199 231 249 356 49 122 64 206 64 358 0
148 -20 243 -83 407 -82 213 -236 386 -421 472 -129 60 -192 73 -380 78 l-165
5 -121 -40 c-149 -50 -307 -128 -449 -223 -171 -115 -487 -433 -712 -717 -104
-131 -116 -154 -116 -222 0 -147 128 -243 344 -257 149 -10 221 24 317 150
292 386 605 674 883 814 82 42 103 42 133 1 72 -95 107 -213 107 -358 0 -210
-80 -373 -255 -520 -255 -215 -550 -350 -917 -420 -62 -12 -123 -48 -159 -94
-38 -48 -38 -130 0 -260 106 -370 115 -714 35 -1271 -33 -231 -129 -657 -216
-955 -176 -608 -465 -1231 -823 -1775 -228 -346 -423 -569 -710 -811 -250
-211 -527 -333 -757 -334 l-67 0 -12 -40 c-15 -48 -33 -47 -37 1 -3 35 -4 35
-100 67 -185 60 -328 159 -523 359 -142 147 -250 285 -343 442 -57 96 -156
283 -156 295 0 2 35 30 78 62 143 107 256 208 425 379 263 266 365 401 490
655 l72 144 0 91 c0 104 -18 161 -72 232 -19 25 -31 49 -26 53 4 4 51 41 104
84 115 91 140 137 119 216 -20 73 -58 104 -198 159 -70 27 -196 82 -281 121
-128 59 -160 70 -188 65 -46 -8 -98 -57 -119 -111 -17 -44 -17 -52 0 -162 10
-65 20 -127 23 -139 5 -22 2 -23 -53 -23 -145 0 -353 -48 -502 -116 -245 -112
-502 -366 -595 -589 -76 -182 -102 -319 -101 -525 1 -145 13 -238 49 -365 5
-17 -8 -28 -77 -67 -108 -61 -281 -131 -404 -164 -84 -23 -126 -27 -272 -31
l-174 -5 -61 31 c-98 48 -192 126 -273 225 -439 532 -512 1236 -204 1963 184
435 760 1194 1260 1662 197 184 293 265 670 567 406 325 940 703 1257 890 166
98 177 127 140 357 -14 89 -31 218 -36 287 -6 69 -16 187 -22 263 -19 229 5
430 75 640 47 141 96 236 145 280 34 31 49 37 84 37 58 0 135 -40 187 -96 94
-102 177 -357 195 -601 12 -149 -25 -549 -72 -788 -32 -162 -34 -226 -8 -275
42 -81 160 -130 316 -130 177 0 267 67 310 232 72 280 119 839 89 1075 -34
272 -146 577 -258 705 -158 180 -335 281 -582 333 -108 23 -317 28 -413 10z
m-727 -6330 c0 -12 -45 -93 -83 -150 -61 -91 -235 -299 -347 -416 l-99 -104
-1 35 c0 50 36 173 75 255 41 85 116 187 182 244 81 72 273 167 273 136z"/>
<path d="M4160 5996 c-71 -15 -107 -35 -157 -85 -66 -66 -88 -121 -88 -221 0
-70 5 -94 25 -135 117 -238 451 -239 570 -3 26 52 30 72 30 138 0 66 -4 86
-30 138 -66 131 -207 199 -350 168z"/>
<path d="M6097 5100 c-76 -29 -132 -82 -169 -158 -28 -57 -33 -77 -33 -138 1
-60 6 -82 33 -137 135 -273 526 -219 594 82 21 96 -13 203 -92 282 -83 83
-223 112 -333 69z"/>
</g>
</svg>
